<svg width="657" height="245" viewBox="0 0 657 245" fill="none" xmlns="http://www.w3.org/2000/svg">
<path d="M275.622 101.806C335.725 103.121 395.29 126.912 446.5 147.997C479.895 148.141 513.549 149.399 546.974 152.603C574.625 155.448 602.465 159.597 628.791 169.359C639.262 173.587 650.657 178.58 656.929 188.705C656.643 188.877 656.357 189.049 656.072 189.22C649.708 179.832 638.365 175.469 627.889 171.9C601.576 163.713 573.869 161.151 546.42 158.578C513.229 155.696 479.731 154.769 446.5 154.928C388.593 132.821 334.709 111.103 275.276 109.847C275.437 109.199 275.582 108.542 275.696 107.896C275.898 106.744 276.103 105.116 275.869 103.505L275.622 101.806Z" fill="#2B2B2B"/>
<path d="M191.474 106.276C194.618 107.414 198.115 108.378 201.822 108.968C201.084 110.174 200.312 111.513 199.52 112.998C140.849 119.012 83.164 134.318 30.7034 162.056C20.6416 167.381 10.7881 173.167 1.28442 179.373C1.09516 179.099 0.905328 178.825 0.716064 178.551C9.9152 171.845 19.5322 165.559 29.4153 159.748C78.869 130.66 134.53 113.621 191.474 106.276Z" fill="#2B2B2B"/>
<path fill-rule="evenodd" clip-rule="evenodd" d="M155.592 49.261C99.8373 37.3748 100.572 -2.08228 104.371 5.14693C108.17 12.3767 138.069 31.3702 172.134 42.8888C206.199 54.407 223.084 78.1478 225.071 81.6109C227.743 86.2672 225.479 89.249 225.071 91.1688C230.503 83.6531 243.231 66.9798 250.682 60.4117C259.995 52.2018 271.146 55.3883 274.332 56.9812C277.518 58.5744 283.154 63.2296 285.36 64.3328C287.124 65.215 290.18 65.2728 291.487 65.1911H335.111C335.116 65.1921 336.336 65.438 336.336 66.4162C336.336 67.2005 335.519 67.4786 335.111 67.5194C333.15 67.4785 325.087 67.6413 308.52 68.6216C287.811 69.847 282.541 75.6066 278.007 79.6503C267.224 89.268 265.571 105.298 252.398 120.824C239.224 136.349 221.273 144.474 206.814 157.953C195.246 168.736 190.475 186.3 189.535 193.734C189.299 195.327 188.065 197.899 188.065 189.935C191.496 152.438 190.638 157.952 198.358 133.199C206.078 108.447 215.758 103.178 212.94 103.178C193.824 104.526 175.688 90.9239 182.183 90.9239C199.192 90.9239 207.953 88.0146 208.406 86.5122C208.675 85.619 206.908 87.4935 184.879 87.4935C159.146 87.4935 150.446 72.4211 149.22 70.0925C147.995 67.7642 158.877 71.8935 171.988 71.4034C182.281 71.0186 179.463 69.8478 178.262 69.8476C176.053 69.8476 154.122 67.7645 141.868 61.27C129.614 54.7755 119.321 38.7227 128.021 43.6242C145.52 53.4826 158.631 49.5921 155.592 49.261ZM269.553 64.7025C267.996 64.7025 266.734 65.9638 266.734 67.5204C266.734 69.0769 267.996 70.3383 269.553 70.3383C271.109 70.3382 272.371 69.0769 272.371 67.5204C272.371 65.9639 271.109 64.7025 269.553 64.7025Z" fill="#2B2B2B"/>
<path d="M178.488 38.9862C169.053 29.183 164.642 -6.10793 169.421 2.22466C174.2 10.5572 189.271 21.2184 206.181 35.6777C223.091 50.137 227.504 70.1104 227.626 72.0715C227.724 73.64 226.033 71.4181 225.175 70.111C201.403 43.1529 179.959 41.0691 178.488 38.9862Z" fill="#2B2B2B"/>
<path d="M270.467 104.121C270.837 106.67 268.655 112.78 267.53 115.06C258.775 132.8 242.62 144.068 224.925 150.93C225.184 148.791 232.714 144.465 235.112 142.836C251.831 131.487 259.93 121.064 270.467 104.121Z" fill="#2B2B2B"/>
<path d="M197.986 179.812C198.256 179.902 198.421 180.172 198.382 180.454C198.259 181.333 198.154 182.244 198.06 183.134C197.148 192.269 196.934 201.282 196.976 210.273C196.978 210.696 196.984 211.116 196.991 211.534C197.176 220.776 198.372 230.098 200.597 239.432C200.812 240.305 201.04 241.189 201.284 242.039C201.362 242.312 201.236 242.603 200.982 242.73C200.722 242.86 200.405 242.779 200.243 242.536C199.729 241.761 199.253 240.967 198.79 240.156C193.945 231.56 191.19 221.674 190.999 211.64C190.991 211.187 190.988 210.732 190.991 210.273C191.061 200.855 192.696 191.413 196.171 182.661C196.518 181.803 196.881 180.948 197.282 180.108C197.407 179.845 197.71 179.72 197.986 179.812Z" fill="#2B2B2B"/>
<path d="M211.973 158.841C212.21 159.001 212.307 159.301 212.213 159.571C212.013 160.149 211.82 160.754 211.637 161.349C209.719 167.822 208.54 174.208 207.682 180.597C207.594 181.264 207.513 181.919 207.435 182.592C206.71 189.096 205.968 195.587 205.893 202.292C205.893 202.918 205.898 203.542 205.924 204.152C205.936 204.435 205.757 204.693 205.485 204.774C205.2 204.859 204.894 204.727 204.769 204.458C204.487 203.855 204.246 203.263 204.013 202.638C201.597 196.044 200.969 188.93 201.507 182.019C201.567 181.274 201.643 180.55 201.74 179.813C202.673 172.76 205.443 165.911 209.887 160.407C210.306 159.892 210.733 159.398 211.189 158.92C211.395 158.704 211.726 158.674 211.973 158.841Z" fill="#2B2B2B"/>
<path d="M324.982 55.1231C324.92 55.0431 325.024 54.9413 325.105 55.0021L334.304 61.857C334.543 62.0357 334.89 61.8846 334.915 61.5903L336.508 42.9413C336.517 42.8358 336.675 42.8358 336.684 42.9413L338.277 61.5903C338.303 61.8846 338.649 62.0357 338.889 61.857L348.087 55.0021C348.169 54.9413 348.273 55.0431 348.211 55.1231L341.216 64.1373C341.034 64.3723 341.188 64.7121 341.488 64.7367L360.518 66.2981C360.625 66.307 360.625 66.4614 360.518 66.4702L341.488 68.0317C341.188 68.0563 341.034 68.396 341.216 68.6311L348.211 77.6452C348.273 77.7253 348.169 77.8271 348.087 77.7662L338.889 70.9114C338.649 70.7327 338.303 70.8838 338.277 71.178L336.684 89.8271C336.675 89.9326 336.517 89.9326 336.508 89.8271L334.915 71.178C334.89 70.8838 334.543 70.7327 334.304 70.9114L325.105 77.7662C325.024 77.8271 324.92 77.7253 324.982 77.6452L331.977 68.631C332.159 68.396 332.005 68.0563 331.705 68.0316L312.675 66.4702C312.567 66.4614 312.567 66.307 312.675 66.2981L331.705 64.7367C332.005 64.7121 332.159 64.3723 331.977 64.1373L324.982 55.1231Z" fill="#2B2B2B"/>
<path d="M626.163 244.612C621.879 244.612 618.174 243.616 615.046 241.623C611.918 239.611 609.497 236.832 607.784 233.286C606.091 229.72 605.244 225.615 605.244 220.973C605.244 216.351 606.091 212.247 607.784 208.661C609.497 205.055 611.858 202.236 614.867 200.204C617.895 198.152 621.391 197.126 625.356 197.126C627.846 197.126 630.247 197.584 632.558 198.5C634.869 199.397 636.941 200.782 638.774 202.654C640.627 204.507 642.091 206.848 643.167 209.677C644.243 212.486 644.781 215.813 644.781 219.659V222.288H608.92V217.596H639.342C639.342 214.648 638.744 211.998 637.549 209.647C636.373 207.276 634.73 205.404 632.618 204.029C630.526 202.654 628.105 201.967 625.356 201.967C622.447 201.967 619.887 202.744 617.676 204.298C615.464 205.852 613.731 207.904 612.476 210.454C611.241 213.004 610.613 215.793 610.593 218.822V221.631C610.593 225.277 611.221 228.464 612.476 231.194C613.751 233.903 615.554 236.005 617.885 237.499C620.216 238.994 622.975 239.741 626.163 239.741C628.334 239.741 630.237 239.402 631.871 238.725C633.524 238.047 634.909 237.141 636.025 236.005C637.16 234.85 638.017 233.585 638.595 232.21L643.645 233.854C642.948 235.786 641.802 237.569 640.208 239.203C638.634 240.836 636.662 242.151 634.291 243.148C631.94 244.124 629.231 244.612 626.163 244.612Z" fill="#2B2B2B"/>
<path d="M559.867 182.451V243.654H554.548V182.451H559.867Z" fill="#2B2B2B"/>
<path d="M506.811 182.451V243.654H501.491V182.451H506.811Z" fill="#2B2B2B"/>
<path d="M448.412 243.654V197.752H453.762V243.654H448.412ZM451.132 189.862C450.036 189.862 449.1 189.494 448.323 188.756C447.546 187.999 447.157 187.093 447.157 186.037C447.157 184.981 447.546 184.085 448.323 183.347C449.1 182.59 450.036 182.212 451.132 182.212C452.228 182.212 453.164 182.59 453.941 183.347C454.718 184.085 455.106 184.981 455.106 186.037C455.106 187.093 454.718 187.999 453.941 188.756C453.164 189.494 452.228 189.862 451.132 189.862Z" fill="#2B2B2B"/>
<path d="M384.695 243.654V197.752H389.865V204.804H390.253C391.17 202.493 392.763 200.631 395.035 199.216C397.326 197.782 399.916 197.064 402.805 197.064C403.243 197.064 403.731 197.074 404.269 197.094C404.807 197.114 405.255 197.134 405.614 197.154V202.563C405.375 202.523 404.956 202.463 404.359 202.384C403.761 202.304 403.113 202.264 402.416 202.264C400.025 202.264 397.894 202.772 396.021 203.788C394.168 204.784 392.704 206.169 391.628 207.942C390.552 209.715 390.014 211.738 390.014 214.009V243.654H384.695Z" fill="#2B2B2B"/>
<path d="M300.529 243.654V182.451H305.878V206.508H306.356C306.954 205.133 307.811 203.719 308.926 202.264C310.062 200.81 311.546 199.595 313.379 198.619C315.232 197.622 317.563 197.124 320.372 197.124C324.137 197.124 327.445 198.121 330.294 200.113C333.143 202.085 335.364 204.854 336.958 208.421C338.552 211.967 339.349 216.101 339.349 220.823C339.349 225.564 338.552 229.718 336.958 233.284C335.384 236.851 333.172 239.63 330.323 241.622C327.494 243.614 324.207 244.61 320.462 244.61C317.672 244.61 315.341 244.112 313.469 243.116C311.616 242.12 310.122 240.895 308.986 239.44C307.851 237.966 306.974 236.532 306.356 235.137H305.699V243.654H300.529ZM305.788 220.733C305.788 224.439 306.336 227.726 307.432 230.595C308.548 233.444 310.142 235.685 312.214 237.319C314.306 238.932 316.836 239.739 319.804 239.739C322.852 239.739 325.432 238.903 327.544 237.229C329.656 235.536 331.26 233.254 332.356 230.386C333.451 227.517 333.999 224.299 333.999 220.733C333.999 217.207 333.451 214.029 332.356 211.2C331.28 208.371 329.686 206.13 327.574 204.476C325.462 202.802 322.872 201.966 319.804 201.966C316.816 201.966 314.276 202.773 312.184 204.386C310.112 205.98 308.528 208.192 307.432 211.021C306.336 213.83 305.788 217.067 305.788 220.733Z" fill="#2B2B2B"/>
<path d="M246.344 243.654V197.752H251.693V243.654H246.344ZM249.064 189.862C247.968 189.862 247.031 189.494 246.254 188.756C245.477 187.999 245.089 187.093 245.089 186.037C245.089 184.981 245.477 184.085 246.254 183.347C247.031 182.59 247.968 182.212 249.064 182.212C250.159 182.212 251.096 182.59 251.873 183.347C252.65 184.085 253.038 184.981 253.038 186.037C253.038 187.093 252.65 187.999 251.873 188.756C251.096 189.494 250.159 189.862 249.064 189.862Z" fill="#2B2B2B"/>
<path d="M127.688 244.612C123.723 244.612 120.216 243.606 117.168 241.594C114.14 239.581 111.769 236.802 110.056 233.256C108.342 229.69 107.486 225.576 107.486 220.914C107.486 216.212 108.342 212.078 110.056 208.512C111.769 204.926 114.14 202.136 117.168 200.144C120.216 198.132 123.723 197.126 127.688 197.126C131.652 197.126 135.149 198.132 138.177 200.144C141.205 202.156 143.576 204.945 145.289 208.512C147.023 212.078 147.889 216.212 147.889 220.914C147.889 225.576 147.033 229.69 145.319 233.256C143.606 236.802 141.225 239.581 138.177 241.594C135.149 243.606 131.652 244.612 127.688 244.612ZM127.688 239.741C130.875 239.741 133.575 238.884 135.786 237.171C137.998 235.457 139.671 233.176 140.807 230.327C141.962 227.478 142.54 224.34 142.54 220.914C142.54 217.487 141.962 214.339 140.807 211.47C139.671 208.601 137.998 206.3 135.786 204.567C133.575 202.834 130.875 201.967 127.688 201.967C124.52 201.967 121.82 202.834 119.589 204.567C117.377 206.3 115.694 208.601 114.538 211.47C113.403 214.339 112.835 217.487 112.835 220.914C112.835 224.34 113.403 227.478 114.538 230.327C115.694 233.176 117.377 235.457 119.589 237.171C121.8 238.884 124.5 239.741 127.688 239.741Z" fill="#2B2B2B"/>
<path d="M64.1637 201.577H58.5455C58.1271 199.485 57.37 197.552 56.2743 195.779C55.1984 193.986 53.8437 192.422 52.21 191.087C50.5763 189.753 48.7235 188.717 46.6516 187.979C44.5796 187.242 42.3383 186.874 39.9276 186.874C36.0626 186.874 32.5362 187.88 29.3486 189.892C26.1808 191.904 23.6407 194.863 21.7281 198.768C19.8354 202.653 18.8891 207.414 18.8891 213.052C18.8891 218.73 19.8354 223.512 21.7281 227.397C23.6407 231.282 26.1808 234.23 29.3486 236.243C32.5362 238.235 36.0626 239.231 39.9276 239.231C42.3383 239.231 44.5796 238.862 46.6516 238.125C48.7235 237.388 50.5763 236.362 52.21 235.047C53.8437 233.712 55.1984 232.148 56.2743 230.355C57.37 228.562 58.1271 226.62 58.5455 224.528H64.1637C63.6657 227.337 62.7293 229.957 61.3546 232.387C59.9998 234.798 58.2666 236.91 56.1547 238.723C54.0628 240.536 51.6522 241.95 48.9227 242.967C46.1933 243.983 43.1949 244.491 39.9276 244.491C34.7875 244.491 30.2252 243.206 26.2406 240.636C22.256 238.046 19.1282 234.4 16.8569 229.698C14.6057 224.996 13.48 219.448 13.48 213.052C13.48 206.657 14.6057 201.109 16.8569 196.407C19.1282 191.705 22.256 188.069 26.2406 185.499C30.2252 182.909 34.7875 181.614 39.9276 181.614C43.1949 181.614 46.1933 182.122 48.9227 183.138C51.6522 184.134 54.0628 185.549 56.1547 187.382C58.2666 189.195 59.9998 191.307 61.3546 193.717C62.7293 196.128 63.6657 198.748 64.1637 201.577Z" fill="#2B2B2B"/>
</svg>
