<svg preserveAspectRatio="none" width="100%" height="100%" overflow="visible" style="display: block;" viewBox="0 0 656.213 243.649" fill="none" xmlns="http://www.w3.org/2000/svg">
<g id="Vector">
<path d="M274.906 100.843C335.009 102.158 394.574 125.949 445.784 147.035C479.179 147.178 512.833 148.437 546.258 151.64C573.909 154.485 601.749 158.634 628.075 168.396C638.546 172.624 649.94 177.618 656.213 187.743C655.927 187.914 655.641 188.086 655.355 188.257C648.992 178.87 637.649 174.507 627.173 170.937C600.86 162.75 573.153 160.189 545.704 157.615C512.513 154.733 479.015 153.806 445.784 153.965C387.877 131.858 333.993 110.141 274.56 108.884C274.721 108.236 274.866 107.579 274.979 106.933C275.182 105.781 275.387 104.154 275.153 102.543L274.906 100.843Z" fill="currentColor"/>
<path d="M190.758 105.313C193.902 106.451 197.399 107.415 201.105 108.006C200.368 109.212 199.596 110.551 198.804 112.036C140.133 118.049 82.4479 133.356 29.9873 161.093C19.9255 166.418 10.072 172.204 0.568359 178.411C0.379095 178.137 0.189264 177.863 0 177.589C9.19914 170.882 18.8161 164.596 28.6992 158.786C78.1529 129.697 133.814 112.658 190.758 105.313Z" fill="currentColor"/>
<path fill-rule="evenodd" clip-rule="evenodd" d="M154.876 48.2984C99.1212 36.4121 99.8563 -3.04493 103.655 4.18429C107.454 11.414 137.353 30.4075 171.418 41.9261C205.483 53.4444 222.368 77.1851 224.355 80.6482C227.027 85.3046 224.763 88.2863 224.355 90.2061C229.787 82.6904 242.515 66.0171 249.966 59.4491C259.279 51.2391 270.43 54.4256 273.616 56.0186C276.802 57.6117 282.438 62.267 284.644 63.3701C286.408 64.2524 289.464 64.3102 290.771 64.2285H334.395C334.4 64.2295 335.62 64.4754 335.62 65.4536C335.62 66.2378 334.803 66.5159 334.395 66.5567C332.434 66.5159 324.371 66.6786 307.804 67.6589C287.095 68.8844 281.825 74.644 277.291 78.6877C266.508 88.3053 264.855 104.335 251.681 119.861C238.508 135.387 220.557 143.511 206.097 156.99C194.53 167.774 189.759 185.338 188.819 192.772C188.583 194.364 187.348 196.937 187.348 188.972C190.78 151.476 189.922 156.989 197.642 132.237C205.362 107.484 215.042 102.215 212.224 102.215C193.108 103.563 174.972 89.9613 181.467 89.9613C198.476 89.9613 207.237 87.052 207.69 85.5496C207.959 84.6564 206.192 86.5308 184.163 86.5308C158.43 86.5308 149.73 71.4585 148.504 69.1298C147.279 66.8016 158.161 70.9309 171.272 70.4408C181.565 70.056 178.747 68.8851 177.546 68.885C175.337 68.885 153.406 66.8018 141.152 60.3074C128.898 53.8129 118.605 37.76 127.305 42.6616C144.804 52.52 157.915 48.6294 154.876 48.2984ZM268.837 63.7398C267.28 63.7398 266.018 65.0012 266.018 66.5577C266.018 68.1143 267.28 69.3756 268.837 69.3756C270.393 69.3755 271.655 68.1142 271.655 66.5577C271.655 65.0012 270.393 63.7399 268.837 63.7398Z" fill="currentColor"/>
<path d="M177.772 38.0236C168.337 28.2204 163.926 -7.07058 168.705 1.26201C173.484 9.59456 188.555 20.2557 205.465 34.715C222.375 49.1744 226.788 69.1477 226.91 71.1089C227.008 72.6774 225.317 70.4554 224.459 69.1484C200.687 42.1902 179.243 40.1065 177.772 38.0236Z" fill="currentColor"/>
<path d="M269.751 103.158C270.121 105.707 267.939 111.818 266.814 114.097C258.059 131.838 241.904 143.105 224.209 149.968C224.468 147.828 231.998 143.502 234.396 141.873C251.115 130.524 259.214 120.102 269.751 103.158Z" fill="currentColor"/>
<path d="M197.27 178.849C197.54 178.939 197.705 179.21 197.666 179.491C197.543 180.37 197.438 181.282 197.344 182.171C196.432 191.307 196.218 200.319 196.26 209.31C196.262 209.733 196.268 210.154 196.275 210.571C196.46 219.813 197.656 229.135 199.881 238.47C200.096 239.343 200.324 240.226 200.568 241.077C200.646 241.35 200.52 241.641 200.266 241.767C200.006 241.898 199.688 241.816 199.527 241.574C199.013 240.798 198.537 240.004 198.074 239.193C193.229 230.597 190.474 220.712 190.283 210.678C190.275 210.225 190.272 209.769 190.275 209.31C190.345 199.892 191.98 190.45 195.455 181.698C195.802 180.841 196.165 179.985 196.566 179.145C196.691 178.882 196.994 178.757 197.27 178.849Z" fill="currentColor"/>
<path d="M211.257 157.879C211.494 158.039 211.591 158.339 211.497 158.609C211.297 159.186 211.103 159.791 210.921 160.387C209.003 166.86 207.824 173.246 206.966 179.634C206.878 180.302 206.797 180.956 206.719 181.63C205.994 188.133 205.252 194.625 205.177 201.33C205.177 201.955 205.182 202.58 205.208 203.189C205.22 203.472 205.041 203.73 204.769 203.811C204.484 203.897 204.178 203.765 204.052 203.495C203.771 202.892 203.53 202.3 203.297 201.676C200.881 195.081 200.253 187.967 200.791 181.056C200.851 180.312 200.927 179.588 201.024 178.851C201.956 171.797 204.727 164.949 209.171 159.444C209.59 158.93 210.017 158.435 210.473 157.957C210.679 157.742 211.01 157.712 211.257 157.879Z" fill="currentColor"/>
<path d="M324.266 54.1605C324.204 54.0805 324.308 53.9786 324.389 54.0395L333.587 60.8943C333.827 61.073 334.174 60.9219 334.199 60.6277L335.792 41.9787C335.801 41.8731 335.959 41.8731 335.968 41.9787L337.561 60.6277C337.586 60.9219 337.933 61.073 338.173 60.8943L347.371 54.0395C347.453 53.9786 347.557 54.0805 347.495 54.1605L340.5 63.1747C340.317 63.4097 340.472 63.7494 340.772 63.7741L359.802 65.3355C359.909 65.3443 359.909 65.4987 359.802 65.5076L340.772 67.069C340.472 67.0936 340.317 67.4334 340.5 67.6684L347.495 76.6826C347.557 76.7626 347.453 76.8644 347.371 76.8036L338.173 69.9487C337.933 69.77 337.586 69.9212 337.561 70.2154L335.968 88.8644C335.959 88.9699 335.801 88.9699 335.792 88.8644L334.199 70.2154C334.174 69.9212 333.827 69.77 333.587 69.9487L324.389 76.8036C324.308 76.8644 324.204 76.7626 324.266 76.6826L331.261 67.6684C331.443 67.4334 331.289 67.0936 330.989 67.069L311.959 65.5076C311.851 65.4987 311.851 65.3443 311.959 65.3355L330.989 63.7741C331.289 63.7494 331.443 63.4097 331.261 63.1747L324.266 54.1605Z" fill="currentColor"/>
<path d="M625.447 243.649C621.163 243.649 617.458 242.653 614.33 240.661C611.202 238.649 608.781 235.869 607.068 232.323C605.374 228.757 604.528 224.653 604.528 220.011C604.528 215.389 605.374 211.285 607.068 207.698C608.781 204.092 611.142 201.273 614.15 199.241C617.179 197.189 620.675 196.163 624.64 196.163C627.13 196.163 629.531 196.621 631.842 197.538C634.153 198.434 636.225 199.819 638.058 201.692C639.911 203.545 641.375 205.885 642.451 208.715C643.527 211.524 644.065 214.851 644.065 218.696V221.326H608.203V216.634H638.626C638.626 213.685 638.028 211.036 636.833 208.685C635.657 206.314 634.014 204.441 631.902 203.066C629.81 201.692 627.389 201.004 624.64 201.004C621.731 201.004 619.171 201.781 616.96 203.335C614.748 204.889 613.015 206.941 611.76 209.492C610.524 212.042 609.897 214.831 609.877 217.859V220.668C609.877 224.314 610.505 227.502 611.76 230.231C613.035 232.941 614.838 235.043 617.169 236.537C619.5 238.031 622.259 238.778 625.447 238.778C627.618 238.778 629.521 238.439 631.155 237.762C632.808 237.085 634.193 236.178 635.309 235.043C636.444 233.887 637.301 232.622 637.879 231.247L642.929 232.891C642.232 234.823 641.086 236.606 639.492 238.24C637.918 239.874 635.946 241.189 633.575 242.185C631.224 243.161 628.515 243.649 625.447 243.649Z" fill="currentColor"/>
<path d="M559.151 181.489V242.692H553.832V181.489H559.151Z" fill="currentColor"/>
<path d="M506.095 181.489V242.692H500.775V181.489H506.095Z" fill="currentColor"/>
<path d="M447.696 242.691V196.789H453.046V242.691H447.696ZM450.416 188.899C449.32 188.899 448.384 188.531 447.607 187.794C446.83 187.037 446.441 186.13 446.441 185.074C446.441 184.018 446.83 183.122 447.607 182.385C448.384 181.628 449.32 181.249 450.416 181.249C451.512 181.249 452.448 181.628 453.225 182.385C454.002 183.122 454.39 184.018 454.39 185.074C454.39 186.13 454.002 187.037 453.225 187.794C452.448 188.531 451.512 188.899 450.416 188.899Z" fill="currentColor"/>
<path d="M383.979 242.691V196.789H389.149V203.842H389.537C390.454 201.531 392.047 199.668 394.319 198.253C396.61 196.819 399.2 196.102 402.089 196.102C402.527 196.102 403.015 196.112 403.553 196.132C404.091 196.152 404.539 196.171 404.898 196.191V201.6C404.659 201.561 404.24 201.501 403.642 201.421C403.045 201.341 402.397 201.302 401.7 201.302C399.309 201.302 397.177 201.81 395.305 202.826C393.452 203.822 391.988 205.206 390.912 206.98C389.836 208.753 389.298 210.775 389.298 213.046V242.691H383.979Z" fill="currentColor"/>
<path d="M299.813 242.692V181.489H305.162V205.545H305.64C306.238 204.171 307.095 202.756 308.21 201.302C309.346 199.847 310.83 198.632 312.663 197.656C314.516 196.66 316.847 196.162 319.656 196.162C323.421 196.162 326.729 197.158 329.578 199.15C332.427 201.123 334.648 203.892 336.242 207.458C337.836 211.004 338.632 215.138 338.632 219.86C338.632 224.602 337.836 228.755 336.242 232.322C334.668 235.888 332.456 238.667 329.607 240.659C326.778 242.652 323.491 243.648 319.746 243.648C316.956 243.648 314.625 243.15 312.753 242.154C310.9 241.157 309.406 239.932 308.27 238.478C307.134 237.004 306.258 235.569 305.64 234.175H304.983V242.692H299.813ZM305.072 219.77C305.072 223.476 305.62 226.763 306.716 229.632C307.832 232.481 309.426 234.722 311.498 236.356C313.589 237.97 316.12 238.777 319.088 238.777C322.136 238.777 324.716 237.94 326.828 236.266C328.94 234.573 330.544 232.292 331.64 229.423C332.735 226.554 333.283 223.336 333.283 219.77C333.283 216.244 332.735 213.066 331.64 210.237C330.564 207.408 328.97 205.167 326.858 203.513C324.746 201.84 322.156 201.003 319.088 201.003C316.1 201.003 313.56 201.81 311.468 203.424C309.396 205.017 307.812 207.229 306.716 210.058C305.62 212.867 305.072 216.105 305.072 219.77Z" fill="currentColor"/>
<path d="M245.628 242.691V196.789H250.977V242.691H245.628ZM248.347 188.899C247.252 188.899 246.315 188.531 245.538 187.794C244.761 187.037 244.373 186.13 244.373 185.074C244.373 184.018 244.761 183.122 245.538 182.385C246.315 181.628 247.252 181.249 248.347 181.249C249.443 181.249 250.38 181.628 251.157 182.385C251.934 183.122 252.322 184.018 252.322 185.074C252.322 186.13 251.934 187.037 251.157 187.794C250.38 188.531 249.443 188.899 248.347 188.899Z" fill="currentColor"/>
<path d="M126.971 243.649C123.007 243.649 119.5 242.643 116.452 240.631C113.424 238.619 111.053 235.839 109.34 232.293C107.626 228.727 106.77 224.613 106.77 219.951C106.77 215.249 107.626 211.115 109.34 207.549C111.053 203.963 113.424 201.174 116.452 199.181C119.5 197.169 123.007 196.163 126.971 196.163C130.936 196.163 134.433 197.169 137.461 199.181C140.489 201.194 142.86 203.983 144.573 207.549C146.307 211.115 147.173 215.249 147.173 219.951C147.173 224.613 146.317 228.727 144.603 232.293C142.89 235.839 140.509 238.619 137.461 240.631C134.433 242.643 130.936 243.649 126.971 243.649ZM126.971 238.778C130.159 238.778 132.859 237.921 135.07 236.208C137.282 234.495 138.955 232.213 140.091 229.365C141.246 226.516 141.824 223.378 141.824 219.951C141.824 216.524 141.246 213.376 140.091 210.508C138.955 207.639 137.282 205.338 135.07 203.604C132.859 201.871 130.159 201.004 126.971 201.004C123.804 201.004 121.104 201.871 118.873 203.604C116.661 205.338 114.978 207.639 113.822 210.508C112.687 213.376 112.119 216.524 112.119 219.951C112.119 223.378 112.687 226.516 113.822 229.365C114.978 232.213 116.661 234.495 118.873 236.208C121.084 237.921 123.784 238.778 126.971 238.778Z" fill="currentColor"/>
<path d="M63.4477 200.614H57.8294C57.411 198.522 56.654 196.59 55.5582 194.817C54.4824 193.024 53.1276 191.46 51.494 190.125C49.8603 188.79 48.0075 187.754 45.9355 187.017C43.8635 186.28 41.6222 185.911 39.2115 185.911C35.3465 185.911 31.8202 186.917 28.6325 188.929C25.4648 190.942 22.9246 193.9 21.012 197.805C19.1193 201.69 18.173 206.452 18.173 212.09C18.173 217.768 19.1193 222.549 21.012 226.434C22.9246 230.319 25.4648 233.268 28.6325 235.28C31.8202 237.272 35.3465 238.268 39.2115 238.268C41.6222 238.268 43.8635 237.9 45.9355 237.163C48.0075 236.425 49.8603 235.399 51.494 234.085C53.1276 232.75 54.4824 231.186 55.5582 229.393C56.654 227.6 57.411 225.657 57.8294 223.565H63.4477C62.9496 226.374 62.0132 228.994 60.6385 231.425C59.2838 233.836 57.5505 235.947 55.4387 237.76C53.3468 239.573 50.9361 240.988 48.2067 242.004C45.4773 243.02 42.4789 243.528 39.2115 243.528C34.0714 243.528 29.5091 242.243 25.5245 239.673C21.54 237.083 18.4121 233.437 16.1409 228.735C13.8896 224.033 12.764 218.485 12.764 212.09C12.764 205.694 13.8896 200.146 16.1409 195.444C18.4121 190.742 21.54 187.106 25.5245 184.536C29.5091 181.946 34.0714 180.651 39.2115 180.651C42.4789 180.651 45.4773 181.16 48.2067 182.176C50.9361 183.172 53.3468 184.586 55.4387 186.419C57.5505 188.232 59.2838 190.344 60.6385 192.755C62.0132 195.165 62.9496 197.785 63.4477 200.614Z" fill="currentColor"/>
</g>
</svg>
