<svg width="800" height="800" viewBox="0 0 800 800" fill="none" xmlns="http://www.w3.org/2000/svg">
<path fill-rule="evenodd" clip-rule="evenodd" d="M261.556 258.977C145.683 232.65 147.211 145.256 155.106 161.268C163 177.281 225.139 219.35 295.937 244.863C366.732 270.375 401.823 322.959 405.953 330.63C411.506 340.943 406.802 347.548 405.953 351.8C417.243 335.153 443.696 298.223 459.179 283.675C478.534 265.491 501.71 272.549 508.331 276.077C514.952 279.606 526.666 289.917 531.25 292.36C534.917 294.314 541.268 294.442 543.985 294.261H634.646C634.656 294.263 637.192 294.808 637.192 296.975C637.192 298.712 635.495 299.328 634.646 299.418C630.571 299.328 613.813 299.688 579.382 301.859C536.344 304.574 525.392 317.331 515.97 326.287C493.559 347.59 490.123 383.095 462.745 417.483C435.367 451.872 398.06 469.866 368.009 499.722C343.969 523.606 334.053 562.509 332.101 578.975C331.61 582.503 329.044 588.2 329.044 570.56C336.174 487.507 334.392 499.72 350.436 444.894C366.48 390.07 386.599 378.399 380.742 378.399C341.013 381.384 303.323 351.257 316.82 351.257C352.169 351.257 370.378 344.814 371.32 341.486C371.879 339.507 368.205 343.659 322.423 343.659C268.944 343.659 250.862 310.275 248.315 305.117C245.768 299.961 268.383 309.107 295.632 308.021C317.024 307.169 311.168 304.575 308.671 304.575C304.08 304.575 258.502 299.961 233.035 285.576C207.568 271.191 186.176 235.636 204.257 246.492C240.625 268.328 267.873 259.711 261.556 258.977ZM498.398 293.179C495.163 293.179 492.54 295.973 492.54 299.42C492.54 302.868 495.163 305.662 498.398 305.662C501.633 305.662 504.255 302.868 504.255 299.42C504.255 295.973 501.633 293.179 498.398 293.179Z" fill="#16302D"/>
<path d="M309.141 236.219C289.532 214.506 280.365 136.339 290.297 154.795C300.229 173.251 331.552 196.865 366.696 228.891C401.839 260.918 411.009 305.157 411.264 309.501C411.468 312.975 407.953 308.054 406.17 305.158C356.764 245.448 312.197 240.833 309.141 236.219Z" fill="#16302D"/>
<path d="M500.299 380.487C501.068 386.134 496.532 399.668 494.194 404.716C475.999 444.01 442.425 468.967 405.649 484.167C406.188 479.428 421.837 469.847 426.822 466.238C461.568 441.101 478.4 418.016 500.299 380.487Z" fill="#16302D"/>
<path d="M349.664 548.138C350.224 548.337 350.568 548.936 350.486 549.559C350.231 551.506 350.012 553.525 349.817 555.495C347.922 575.73 347.478 595.692 347.563 615.607C347.569 616.543 347.58 617.474 347.596 618.4C347.981 638.87 350.465 659.517 355.09 680.192C355.536 682.126 356.01 684.083 356.517 685.967C356.679 686.571 356.418 687.216 355.891 687.497C355.349 687.785 354.69 687.605 354.355 687.068C353.285 685.35 352.296 683.592 351.334 681.795C341.265 662.755 335.54 640.86 335.143 618.635C335.126 617.632 335.119 616.622 335.125 615.607C335.27 594.746 338.668 573.833 345.891 554.447C346.611 552.548 347.367 550.654 348.2 548.794C348.46 548.211 349.089 547.934 349.664 548.138Z" fill="#16302D"/>
<path d="M378.733 501.689C379.224 502.044 379.426 502.709 379.231 503.306C378.815 504.585 378.413 505.925 378.034 507.244C374.047 521.582 371.598 535.726 369.814 549.876C369.631 551.355 369.462 552.805 369.301 554.296C367.794 568.701 366.252 583.079 366.096 597.93C366.097 599.315 366.108 600.699 366.16 602.049C366.185 602.676 365.813 603.247 365.248 603.427C364.656 603.616 364.02 603.324 363.759 602.727C363.175 601.391 362.674 600.08 362.188 598.697C357.168 584.09 355.862 568.333 356.98 553.026C357.105 551.377 357.263 549.773 357.465 548.141C359.403 532.517 365.161 517.349 374.398 505.157C375.269 504.017 376.155 502.922 377.103 501.864C377.531 501.386 378.22 501.319 378.733 501.689Z" fill="#16302D"/>
<path d="M613.594 271.96C613.466 271.783 613.681 271.558 613.851 271.692L632.97 286.877C633.468 287.273 634.187 286.938 634.239 286.288L637.551 244.977C637.57 244.743 637.897 244.743 637.916 244.977L641.227 286.288C641.279 286.938 641.999 287.273 642.497 286.877L661.616 271.692C661.785 271.558 662.001 271.783 661.872 271.96L647.333 291.929C646.954 292.449 647.275 293.2 647.898 293.255L687.451 296.713C687.674 296.733 687.674 297.075 687.451 297.094L647.898 300.553C647.275 300.607 646.954 301.359 647.333 301.879L661.872 321.848C662.001 322.025 661.785 322.25 661.616 322.115L642.497 306.93C641.999 306.535 641.279 306.869 641.227 307.52L637.916 348.831C637.897 349.064 637.57 349.064 637.551 348.831L634.239 307.52C634.187 306.869 633.468 306.535 632.97 306.93L613.851 322.115C613.681 322.25 613.466 322.025 613.594 321.848L628.134 301.879C628.512 301.359 628.192 300.607 627.569 300.553L588.016 297.094C587.792 297.075 587.792 296.733 588.016 296.713L627.569 293.255C628.192 293.2 628.512 292.449 628.134 291.929L613.594 271.96Z" fill="#16302D"/>
</svg>
