<svg preserveAspectRatio="none" width="100%" height="100%" overflow="visible" style="display: block;" viewBox="0 0 68.3422 80.5882" fill="none" xmlns="http://www.w3.org/2000/svg">
<g id="pictogram">
<path d="M0 30C0 13.4315 13.4315 0 30 0V0C46.5685 0 60 13.4315 60 30V50.5882C60 67.1568 46.5685 80.5882 30 80.5882V80.5882C13.4315 80.5882 0 67.1568 0 50.5882V30Z" fill="var(--fill-0, #E5E5E5)"/>
<path id="Vector" d="M65.8443 10.9722C66.8364 10.94 67.4953 11.2147 68.0536 12.1045C68.3338 12.5512 68.4151 13.2034 68.2747 13.7086C68.1826 14.0387 67.9944 14.4552 67.7852 14.7263C67.0296 15.6521 66.2417 16.5623 65.4662 17.4715L61.8953 21.6967L50.6414 35.0647L38.5036 49.5079L33.8235 55.0598C32.9007 56.1593 31.3461 58.3232 30.1459 58.9949C28.9722 59.6411 27.5893 59.7925 26.3036 59.4154C24.8908 59.0031 24.0522 58.3108 23.3581 57.021C22.8527 56.0819 22.3087 55.1326 21.7897 54.1983L17.638 46.692C16.6697 44.9122 15.6923 43.1372 14.7059 41.3673C14.1084 40.2914 13.2768 38.9585 12.8676 37.8112C12.4681 36.6918 13.402 35.1419 14.5881 34.8633C15.1742 34.7304 15.7887 34.8165 16.3155 35.1057C16.8467 35.3994 18.1219 36.6721 18.6495 37.1507L24.4881 42.4352C25.1665 43.058 27.138 44.9637 27.8044 45.3843C28.2315 44.8421 29.952 43.3595 30.5845 42.7735L38.3594 35.6769L55.2978 20.2233L61.8265 14.2432C62.7293 13.4183 64.7971 11.2565 65.8443 10.9722Z" fill="var(--fill-0, #207E75)"/>
</g>
</svg>
