<svg xmlns="http://www.w3.org/2000/svg" viewBox="0 0 32 32" width="32" height="32">
  <rect width="32" height="32" rx="6" fill="#16302d"/>
  <g transform="translate(2, 4) scale(0.043)" fill="#f3e1a1">
    <path d="M274.906 100.843C335.009 102.158 394.574 125.949 445.784 147.035C479.179 147.178 512.833 148.437 546.258 151.64C573.909 154.485 601.749 158.634 628.075 168.396C638.546 172.624 649.94 177.618 656.213 187.743C655.927 187.914 655.641 188.086 655.355 188.257C648.992 178.87 637.649 174.507 627.173 170.937C600.86 162.75 573.153 160.189 545.704 157.615C512.513 154.733 479.015 153.806 445.784 153.965C387.877 131.858 333.993 110.141 274.56 108.884C274.721 108.236 274.866 107.579 274.979 106.933C275.182 105.781 275.387 104.154 275.153 102.543L274.906 100.843Z"/>
    <path d="M190.758 105.313C193.902 106.451 197.399 107.415 201.105 108.006C200.368 109.212 199.596 110.551 198.804 112.036C140.133 118.049 82.4479 133.356 29.9873 161.093C19.9255 166.418 10.072 172.204 0.568359 178.411C0.379095 178.137 0.189264 177.863 0 177.589C9.19914 170.882 18.8161 164.596 28.6992 158.786C78.1529 129.697 133.814 112.658 190.758 105.313Z"/>
    <path fill-rule="evenodd" clip-rule="evenodd" d="M154.876 48.2984C99.1212 36.4121 99.8563 -3.04493 103.655 4.18429C107.454 11.414 137.353 30.4075 171.418 41.9261C205.483 53.4444 222.368 77.1851 224.355 80.6482C227.027 85.3046 224.763 88.2863 224.355 90.2061C229.787 82.6904 242.515 66.0171 249.966 59.4491C259.279 51.2391 270.43 54.4256 273.616 56.0186C276.802 57.6117 282.438 62.267 284.644 63.3701C286.408 64.2524 289.464 64.3102 290.771 64.2285H334.395C334.4 64.2295 335.62 64.4754 335.62 65.4536C335.62 66.2378 334.803 66.5159 334.395 66.5567C332.434 66.5159 324.371 66.6786 307.804 67.6589C287.095 68.8844 281.825 74.644 277.291 78.6877C266.508 88.3053 264.855 104.335 251.681 119.861C238.508 135.387 220.557 143.511 206.097 156.99C194.53 167.774 189.759 185.338 188.819 192.772C188.583 194.364 187.348 196.937 187.348 188.972C190.78 151.476 189.922 156.989 197.642 132.237C205.362 107.484 215.042 102.215 212.224 102.215C193.108 103.563 174.972 89.9613 181.467 89.9613C198.476 89.9613 207.237 87.052 207.69 85.5496C207.959 84.6564 206.192 86.5308 184.163 86.5308C158.43 86.5308 149.73 71.4585 148.504 69.1298C147.279 66.8016 158.161 70.9309 171.272 70.4408C181.565 70.056 178.747 68.8851 177.546 68.885C175.337 68.885 153.406 66.8018 141.152 60.3074C128.898 53.8129 118.605 37.76 127.305 42.6616C144.804 52.52 157.915 48.6294 154.876 48.2984ZM268.837 63.7398C267.28 63.7398 266.018 65.0012 266.018 66.5577C266.018 68.1143 267.28 69.3756 268.837 69.3756C270.393 69.3755 271.655 68.1142 271.655 66.5577C271.655 65.0012 270.393 63.7399 268.837 63.7398Z"/>
    <path d="M193.479 207.488C196.539 197.889 201.14 186.723 208.83 179.097C218.161 169.842 231.398 165.175 243.098 158.589C253.684 152.61 268.296 141.104 276.447 128.853C285.131 115.804 289.637 100.483 299.177 88.0137C303.689 82.1175 312.316 75.3989 317.637 73.9019C319.006 73.5173 319.479 73.7636 318.607 74.7728C310.429 84.2202 298.955 95.5782 296.082 108.253C293.296 120.544 298.362 127.99 298.768 132.787L298.976 135.242L298.768 136.723C298.768 128.082 288.299 118.555 283.428 125.096C278.557 131.637 275.979 157.153 286.448 165.144C296.917 173.135 297.891 165.144 299.092 161.693C299.853 159.581 299.957 158.281 301.36 158.281C302.763 158.281 302.462 163.144 302.462 167.246C302.462 172.32 299.56 178.411 295.416 183.753C291.272 189.095 286.601 192.405 281.084 195.672C275.567 198.94 259.746 208.362 246.735 211.795C233.723 215.228 219.831 217.103 207.343 216.041C200.453 215.462 195.27 214.121 193.479 207.488Z"/>
  </g>
</svg>
