<svg preserveAspectRatio="none" width="100%" height="100%" overflow="visible" style="display: block;" viewBox="0 0 29.25 29.25" fill="none" xmlns="http://www.w3.org/2000/svg">
<g id="Vector">
<path d="M23.3306 14.1255L23.2471 15.3281C23.1294 17.0203 22.5328 18.9887 21.1816 20.5547C19.8004 22.1553 17.7018 23.2498 14.7891 23.25C9.95769 23.25 6 19.4104 6 14.625C6 9.83955 9.95769 6 14.7891 6C17.0585 6.00018 19.1346 6.84771 20.6953 8.24121L19.9468 9.08057L19.1968 9.91846C18.0374 8.88349 16.4909 8.25018 14.7891 8.25C11.1546 8.25 8.25 11.1274 8.25 14.625C8.25 18.1226 11.1546 21 14.7891 21C17.0792 20.9998 18.5446 20.1671 19.478 19.0854C20.156 18.2998 20.5845 17.3379 20.814 16.3755H15.8862V14.1255H23.3306Z" fill="var(--fill-0, #FBFBFB)"/>
<path d="M27 8.625C27 5.10419 24.1458 2.25 20.625 2.25H8.625C5.10419 2.25 2.25 5.10419 2.25 8.625V20.625C2.25 24.1458 5.10419 27 8.625 27H20.625C24.1458 27 27 24.1458 27 20.625V8.625ZM29.25 20.625C29.25 25.3884 25.3884 29.25 20.625 29.25H8.625C3.86155 29.25 0 25.3884 0 20.625V8.625C0 3.86155 3.86155 0 8.625 0H20.625C25.3884 0 29.25 3.86155 29.25 8.625V20.625Z" fill="var(--fill-0, #FBFBFB)"/>
</g>
</svg>
