<svg preserveAspectRatio="none" width="100%" height="100%" overflow="visible" style="display: block;" viewBox="0 0 140 124" fill="none" xmlns="http://www.w3.org/2000/svg">
<path id="shape" d="M41.087 0L63.913 14.1169L43.75 61.0462L62.3913 100.726C58.8406 105.559 54.4022 110.265 49.0761 114.843C44.0036 119.422 39.3116 122.474 35 124C28.6594 122.983 22.0652 119.93 15.2174 114.843C8.36957 109.502 3.2971 103.524 0 96.9108V72.1108C2.28261 66.2605 5.57971 59.1385 9.8913 50.7446C14.2029 42.0964 19.1486 33.321 24.7283 24.4185C30.308 15.2615 35.7609 7.12205 41.087 0ZM140 14.1169L119.837 61.0462L138.478 100.726C134.928 105.559 130.489 110.265 125.163 114.843C120.091 119.422 115.399 122.474 111.087 124C104.746 122.983 98.1522 119.93 91.3044 114.843C84.4565 109.502 79.3841 103.524 76.087 96.9108V72.1108C78.3696 66.2605 81.6667 59.1385 85.9783 50.7446C90.2899 42.0964 95.2355 33.321 100.815 24.4185C106.395 15.2615 111.848 7.12205 117.174 0L140 14.1169Z" fill="var(--fill-0, white)" fill-opacity="0.05"/>
</svg>
